<?xml version="1.0" encoding="utf-8"?>
<!-- Generator: Adobe Illustrator 16.0.0, SVG Export Plug-In . SVG Version: 6.00 Build 0)  -->
<!DOCTYPE svg PUBLIC "-//W3C//DTD SVG 1.1//EN" "http://www.w3.org/Graphics/SVG/1.1/DTD/svg11.dtd">
<svg version="1.1" id="Layer_1" xmlns="http://www.w3.org/2000/svg" xmlns:xlink="http://www.w3.org/1999/xlink" x="0px" y="0px"
	 width="500px" height="150px" viewBox="0 0 500 150" enable-background="new 0 0 500 150" xml:space="preserve">
<g>
	<defs>
		<rect id="SVGID_1_" x="-2.667" y="-9.72" width="506" height="169.333"/>
	</defs>
	<clipPath id="SVGID_2_">
		<use xlink:href="#SVGID_1_"  overflow="visible"/>
	</clipPath>
	<path clip-path="url(#SVGID_2_)" fill="#FFFFFF" d="M3.421,102.727v-0.204c0-20.96,16.027-37.398,37.809-37.398
		c14.692,0,24.144,6.164,30.514,14.897l-15,11.609c-4.11-5.035-8.836-8.424-15.719-8.424c-10.069,0-17.158,8.63-17.158,19.109v0.206
		c0,10.787,7.089,19.213,17.158,19.213c7.499,0,11.918-3.493,16.233-8.733l15,10.685c-6.781,9.35-15.925,16.233-31.748,16.233
		C19.962,139.92,3.421,124.201,3.421,102.727"/>
	<polygon clip-path="url(#SVGID_2_)" fill="#FFFFFF" points="203.167,66.049 183.954,66.049 153.439,138.482 174.296,138.482 
		193.407,89.68 212.414,138.482 233.785,138.482 	"/>
	<rect x="241.295" y="66.563" clip-path="url(#SVGID_2_)" fill="#FFFFFF" width="19.932" height="71.919"/>
	<path clip-path="url(#SVGID_2_)" fill="#2D9357" d="M365.78,134.416v4.1h-11.806V93.158h11.806v16.218
		c2.298-2.796,5.157-5.22,10.189-5.22c8.016,0,14.912,6.646,14.912,17.397v0.123c0,10.936-6.896,17.585-14.85,17.585
		C370.938,139.262,367.954,136.963,365.78,134.416 M379.325,121.74v-0.125c0-4.475-3.106-7.643-6.897-7.643
		c-3.852,0-6.896,3.168-6.896,7.643v0.125c0,4.474,3.045,7.642,6.896,7.642C376.219,129.382,379.325,126.275,379.325,121.74"/>
	<path clip-path="url(#SVGID_2_)" fill="#2D9357" d="M394.682,121.863v-0.123c0-9.817,7.021-17.584,16.963-17.584
		c11.557,0,16.9,8.511,16.9,18.391c0,0.746,0,1.615-0.063,2.424h-22.493c0.933,3.665,3.605,5.529,7.271,5.529
		c2.858,0,5.032-1.055,7.456-3.417l6.524,5.406c-3.231,4.1-7.892,6.835-14.54,6.835C402.138,139.324,394.682,132.24,394.682,121.863
		 M417.548,118.944c-0.437-3.729-2.674-6.089-5.903-6.089c-3.107,0-5.219,2.36-5.841,6.089H417.548z"/>
	<path clip-path="url(#SVGID_2_)" fill="#2D9357" d="M435.76,128.078v-13.733h-3.977v-9.442h3.977v-8.515h11.743v8.515h7.83v9.442
		h-7.83v11.433c0,2.361,1.056,3.355,3.231,3.355c1.554,0,3.045-0.434,4.474-1.118v9.197c-2.112,1.181-4.908,1.987-8.201,1.987
		C439.923,139.199,435.76,136.092,435.76,128.078"/>
	<polygon clip-path="url(#SVGID_2_)" fill="#FFFFFF" points="100.828,66.563 80.896,66.563 80.896,138.481 100.828,138.481 
		100.828,111.152 126.411,93.48 100.828,93.48 	"/>
	<polygon clip-path="url(#SVGID_2_)" fill="#FFFFFF" points="126.41,66.563 126.41,93.48 126.41,111.152 126.41,138.481 
		146.342,138.481 146.342,66.563 	"/>
	<polygon clip-path="url(#SVGID_2_)" fill="#FFFFFF" points="342.293,112.451 342.293,66.563 322.567,66.563 322.567,87.107 	"/>
	<polygon clip-path="url(#SVGID_2_)" fill="#FFFFFF" points="292.978,66.563 274.38,66.563 274.38,138.481 294.107,138.481 
		294.107,99.028 324.93,138.481 342.293,138.481 342.293,129.92 	"/>
	<path clip-path="url(#SVGID_2_)" fill="#2D9357" d="M485.395,68.191l-22.862-55.613c-2.057-5.002-7.276-7.94-12.619-7.102
		l-71.002,11.127c-4.04,0.633-7.455,3.331-9.005,7.115l-24.877,60.708c-0.604,1.471,0.59,3.053,2.172,2.875l84.505-9.479
		c3.475-0.391,6.825,1.43,8.39,4.559l30.654,61.274c0.789,1.576,3.133,1.231,3.435-0.505L486.1,74.637
		C486.478,72.465,486.233,70.23,485.395,68.191 M398.795,31.142c1.515-4.574,6.787-8.826,11.794-9.548
		c5.011-0.723,7.953,2.347,6.552,6.91c-1.419,4.621-6.739,9.008-11.866,9.743C400.151,38.981,397.259,35.776,398.795,31.142
		 M373.418,34.792c1.675-4.591,7.062-8.854,12.054-9.574c4.996-0.721,7.797,2.364,6.237,6.943c-1.58,4.638-7.022,9.037-12.133,9.769
		C374.469,42.662,371.722,39.442,373.418,34.792 M380.761,62.121c-1.683,4.945-7.339,9.599-12.609,10.335
		c-5.269,0.735-8.054-2.737-6.245-7.694c1.782-4.891,7.38-9.395,12.523-10.118C379.577,53.921,382.421,57.242,380.761,62.121
		 M406.976,58.449c-1.509,4.928-7.035,9.57-12.322,10.308c-5.283,0.737-8.224-2.719-6.588-7.659
		c1.612-4.874,7.085-9.366,12.243-10.091C405.471,50.281,408.466,53.587,406.976,58.449 M433.044,54.798
		c-1.336,4.91-6.734,9.54-12.037,10.28c-5.299,0.74-8.393-2.7-6.931-7.623c1.442-4.858,6.791-9.338,11.966-10.065
		C431.219,46.662,434.363,49.953,433.044,54.798 M442.431,24.866c-1.258,4.606-6.46,8.981-11.602,9.718
		c-5.139,0.736-8.175-2.454-6.8-7.071c1.356-4.558,6.514-8.798,11.536-9.523C440.59,17.265,443.672,20.32,442.431,24.866
		 M458.761,47.19c-0.788-6.916,0.551-12.747,2.99-13.025c2.438-0.278,5.054,5.104,5.841,12.02s-0.551,12.747-2.99,13.025
		C462.163,59.487,459.548,54.106,458.761,47.19 M469.237,109.009c-2.203,0.251-4.624-5.127-5.408-12.012s0.367-12.669,2.57-12.92
		c2.201-0.251,4.623,5.127,5.406,12.013C472.59,102.975,471.44,108.758,469.237,109.009"/>
</g>
</svg>
