<?xml version="1.0" encoding="UTF-8" standalone="no"?>
<svg
   xmlns:dc="http://purl.org/dc/elements/1.1/"
   xmlns:cc="http://creativecommons.org/ns#"
   xmlns:rdf="http://www.w3.org/1999/02/22-rdf-syntax-ns#"
   xmlns:svg="http://www.w3.org/2000/svg"
   xmlns="http://www.w3.org/2000/svg"
   xmlns:sodipodi="http://sodipodi.sourceforge.net/DTD/sodipodi-0.dtd"
   xmlns:inkscape="http://www.inkscape.org/namespaces/inkscape"
   version="1.1"
   id="svg2"
   xml:space="preserve"
   width="1122.52"
   height="793.70667"
   viewBox="0 0 1122.52 793.70667"
   sodipodi:docname="03.ai"><metadata
     id="metadata8"><rdf:RDF><cc:Work
         rdf:about=""><dc:format>image/svg+xml</dc:format><dc:type
           rdf:resource="http://purl.org/dc/dcmitype/StillImage" /></cc:Work></rdf:RDF></metadata><defs
     id="defs6"><clipPath
       clipPathUnits="userSpaceOnUse"
       id="clipPath20"><path
         d="M 0,595.28 H 841.89 V 0 H 0 Z"
         id="path18" /></clipPath></defs><sodipodi:namedview
     pagecolor="#ffffff"
     bordercolor="#666666"
     borderopacity="1"
     objecttolerance="10"
     gridtolerance="10"
     guidetolerance="10"
     inkscape:pageopacity="0"
     inkscape:pageshadow="2"
     inkscape:window-width="640"
     inkscape:window-height="480"
     id="namedview4" /><g
     id="g10"
     inkscape:groupmode="layer"
     inkscape:label="03"
     transform="matrix(1.3333333,0,0,-1.3333333,0,793.70667)"><path
       d="M 0,0 H 841.89 V 595.28 H 0 Z"
       style="fill:#161616;fill-opacity:1;fill-rule:nonzero;stroke:none"
       id="path12" /><g
       id="g14"><g
         id="g16"
         clip-path="url(#clipPath20)"><g
           id="g22"
           transform="translate(175.4208,290.5533)"><path
             d="m 0,0 v 0.205 c 0,20.96 16.027,37.398 37.809,37.398 14.692,0 24.144,-6.164 30.514,-14.897 l -15,-11.61 C 49.213,16.131 44.487,19.52 37.604,19.52 27.535,19.52 20.446,10.89 20.446,0.411 V 0.205 c 0,-10.788 7.089,-19.213 17.158,-19.213 7.499,0 11.918,3.493 16.233,8.733 l 15,-10.685 C 62.056,-30.309 52.912,-37.193 37.089,-37.193 16.541,-37.193 0,-21.474 0,0"
             style="fill:#ffffff;fill-opacity:1;fill-rule:nonzero;stroke:none"
             id="path24" /></g><g
           id="g26"
           transform="translate(375.1666,327.2312)"><path
             d="M 0,0 H -19.213 L -49.727,-72.433 H -28.87 L -9.76,-23.631 9.247,-72.433 H 30.618 Z"
             style="fill:#ffffff;fill-opacity:1;fill-rule:nonzero;stroke:none"
             id="path28" /></g><path
           d="m 413.295,326.718 h 19.932 v -71.919 h -19.932 z"
           style="fill:#ffffff;fill-opacity:1;fill-rule:nonzero;stroke:none"
           id="path30" /><g
           id="g32"
           transform="translate(551.3252,271.5403)"><path
             d="m 0,0 v 0.125 c 0,4.474 -3.106,7.642 -6.897,7.642 -3.852,0 -6.897,-3.168 -6.897,-7.642 V 0 c 0,-4.474 3.045,-7.642 6.897,-7.642 C -3.106,-7.642 0,-4.535 0,0 m -13.545,-12.676 v -4.1 h -11.806 v 45.358 h 11.806 V 12.364 c 2.298,2.796 5.157,5.22 10.19,5.22 8.015,0 14.912,-6.647 14.912,-17.398 V 0.063 c 0,-10.935 -6.897,-17.585 -14.85,-17.585 -5.095,0 -8.078,2.299 -10.252,4.846"
             style="fill:#2e9357;fill-opacity:1;fill-rule:nonzero;stroke:none"
             id="path34" /></g><g
           id="g36"
           transform="translate(589.5474,274.3362)"><path
             d="M 0,0 C -0.436,3.728 -2.673,6.089 -5.903,6.089 -9.01,6.089 -11.122,3.728 -11.744,0 Z m -22.866,-2.919 v 0.123 c 0,9.817 7.021,17.584 16.963,17.584 11.557,0 16.901,-8.511 16.901,-18.391 0,-0.746 0,-1.615 -0.063,-2.424 h -22.493 c 0.932,-3.665 3.605,-5.529 7.27,-5.529 2.859,0 5.033,1.055 7.456,3.417 l 6.525,-5.406 c -3.232,-4.1 -7.892,-6.835 -14.54,-6.835 -10.563,0 -18.019,7.084 -18.019,17.461"
             style="fill:#2e9357;fill-opacity:1;fill-rule:nonzero;stroke:none"
             id="path38" /></g><g
           id="g40"
           transform="translate(607.76,265.2023)"><path
             d="m 0,0 v 13.733 h -3.977 v 9.443 H 0 v 8.514 h 11.743 v -8.514 h 7.83 v -9.443 h -7.83 V 2.301 c 0,-2.362 1.056,-3.356 3.231,-3.356 1.554,0 3.045,0.434 4.474,1.118 V -9.134 C 17.336,-10.315 14.54,-11.121 11.247,-11.121 4.163,-11.121 0,-8.014 0,0"
             style="fill:#2e9357;fill-opacity:1;fill-rule:nonzero;stroke:none"
             id="path42" /></g><g
           id="g44"
           transform="translate(272.8277,326.7176)"><path
             d="M 0,0 H -19.932 V -71.919 H 0 v 27.329 l 25.583,17.672 -25.583,0 z"
             style="fill:#ffffff;fill-opacity:1;fill-rule:nonzero;stroke:none"
             id="path46" /></g><g
           id="g48"
           transform="translate(298.4102,326.7176)"><path
             d="M 0,0 V -26.918 -44.59 -71.919 H 19.932 V 0 Z"
             style="fill:#ffffff;fill-opacity:1;fill-rule:nonzero;stroke:none"
             id="path50" /></g><g
           id="g52"
           transform="translate(514.2934,280.8294)"><path
             d="M 0,0 V 45.888 H -19.726 V 25.343 Z"
             style="fill:#ffffff;fill-opacity:1;fill-rule:nonzero;stroke:none"
             id="path54" /></g><g
           id="g56"
           transform="translate(464.9772,326.7176)"><path
             d="M 0,0 H -18.597 V -71.919 H 1.13 v 39.453 l 30.822,-39.453 h 17.364 v 8.562 z"
             style="fill:#ffffff;fill-opacity:1;fill-rule:nonzero;stroke:none"
             id="path58" /></g><g
           id="g60"
           transform="translate(649.4333,290.5348)"><path
             d="m 0,0 c -2.203,-0.251 -4.624,5.127 -5.408,12.012 -0.784,6.885 0.367,12.669 2.57,12.92 C -0.636,25.183 1.786,19.805 2.569,12.92 3.353,6.035 2.203,0.251 0,0 m -10.476,61.819 c -0.788,6.916 0.551,12.747 2.99,13.025 2.438,0.278 5.054,-5.104 5.841,-12.02 0.787,-6.916 -0.551,-12.747 -2.99,-13.025 -2.439,-0.277 -5.054,5.104 -5.841,12.02 m -16.33,22.324 c -1.258,-4.606 -6.46,-8.981 -11.602,-9.718 -5.139,-0.736 -8.175,2.454 -6.8,7.071 1.357,4.558 6.514,8.798 11.536,9.523 5.025,0.725 8.107,-2.33 6.866,-6.876 m -9.387,-29.932 c -1.336,-4.91 -6.734,-9.54 -12.037,-10.28 -5.299,-0.74 -8.393,2.7 -6.931,7.623 1.443,4.858 6.791,9.338 11.966,10.065 5.177,0.728 8.321,-2.563 7.002,-7.408 M -62.261,50.56 c -1.509,-4.928 -7.036,-9.57 -12.323,-10.308 -5.283,-0.737 -8.223,2.719 -6.588,7.659 1.613,4.874 7.085,9.366 12.244,10.091 5.162,0.726 8.157,-2.58 6.667,-7.442 m -26.215,-3.672 c -1.683,-4.945 -7.339,-9.599 -12.61,-10.335 -5.268,-0.735 -8.053,2.737 -6.245,7.694 1.783,4.891 7.38,9.395 12.524,10.118 5.147,0.723 7.991,-2.598 6.331,-7.477 m -7.343,27.329 c 1.675,4.591 7.062,8.854 12.054,9.574 4.996,0.721 7.797,-2.364 6.237,-6.943 -1.58,-4.638 -7.022,-9.037 -12.133,-9.769 -5.107,-0.732 -7.854,2.488 -6.158,7.138 m 25.377,3.65 c 1.515,4.574 6.787,8.826 11.794,9.548 5.011,0.723 7.953,-2.347 6.552,-6.91 -1.419,-4.621 -6.74,-9.008 -11.867,-9.743 -5.123,-0.734 -8.015,2.471 -6.479,7.105 m 86.6,-37.049 -22.863,55.613 c -2.056,5.002 -7.276,7.94 -12.619,7.102 L -90.326,92.406 c -4.04,-0.633 -7.455,-3.331 -9.005,-7.115 l -24.877,-60.707 c -0.604,-1.472 0.59,-3.054 2.172,-2.876 l 84.505,9.479 c 3.475,0.39 6.825,-1.43 8.39,-4.558 L 1.513,-34.646 c 0.789,-1.576 3.133,-1.232 3.435,0.505 l 11.915,68.513 c 0.378,2.172 0.133,4.407 -0.705,6.446"
             style="fill:#2e9357;fill-opacity:1;fill-rule:nonzero;stroke:none"
             id="path62" /></g></g></g></g></svg>
